<svg width="78" height="78" viewBox="0 0 78 78" fill="none" xmlns="http://www.w3.org/2000/svg">
<path d="M59.5494 23.4825V2.93735C59.5494 1.31762 58.2315 0 56.6119 0H21.388C19.7683 0 18.4505 1.31778 18.4505 2.93735V23.4825H8.38647V77.9998H69.6134V23.4825H59.5494ZM20.9707 2.93735H20.9709C20.9709 2.71111 21.1619 2.52038 21.3878 2.52038H56.6117C56.838 2.52038 57.0287 2.71142 57.0287 2.93735V23.4825H20.9707V2.93735ZM67.093 75.4798H10.9069V26.0031H67.093V75.4798Z" fill="black"/>
<path d="M14.2571 29.3531V36.4839H16.7775V31.8735H22.2268V29.3531H14.2571Z" fill="black"/>
<path d="M61.2221 64.9985V69.6091H55.7732V72.1295H63.7425V64.9985H61.2221Z" fill="black"/>
<path d="M55.3556 50.3058V50.3057C55.1193 41.2915 47.5903 34.1496 38.5644 34.3854C29.55 34.6217 22.4083 42.1542 22.6441 51.1766C22.8766 60.0466 30.172 67.1025 39.001 67.1025C39.1449 67.1025 39.2906 67.1007 39.4353 67.0969C48.4496 66.8608 55.5915 59.3284 55.3556 50.3058ZM39.3696 64.5774C31.7441 64.7733 25.3639 58.7361 25.164 51.1108C24.964 43.4776 31.0052 37.1049 38.6305 36.9052C38.7534 36.902 38.8756 36.9003 38.9981 36.9003C46.4672 36.9003 52.6397 42.8695 52.8364 50.3718C53.036 58.0052 46.9948 64.3777 39.3696 64.5774Z" fill="black"/>
<path d="M39 40.256C33.2183 40.256 28.5146 44.9599 28.5146 50.7414C28.5146 56.523 33.2186 61.2268 39 61.2268C44.7818 61.2268 49.4854 56.5228 49.4854 50.7414C49.4854 44.9598 44.7818 40.256 39 40.256ZM37.7398 58.6057C34.3555 58.0653 31.6759 55.386 31.1356 52.0014H37.7398V58.6057ZM37.7398 49.481H31.1356C31.6759 46.0967 34.3554 43.4171 37.7398 42.8768V49.481ZM40.2604 42.8768C43.6447 43.4171 46.3243 46.0966 46.8646 49.481H40.2604V42.8768ZM40.2602 58.6058V52.0016H46.8645C46.3243 55.386 43.6447 58.0653 40.2602 58.6058Z" fill="black"/>
<g clip-path="url(#clip0_612_207)">
<path d="M41.7016 22.8348C41.7204 22.7917 41.743 22.7504 41.7691 22.7113C41.7304 22.7707 41.7011 22.8358 41.6823 22.9043C41.6841 22.8807 41.6907 22.8577 41.7016 22.8367V22.8348ZM41.9331 22.5106C41.9047 22.5371 41.8789 22.5661 41.8559 22.5974C41.8663 22.5713 41.8828 22.5481 41.9042 22.5299C41.9138 22.5164 41.9235 22.5164 41.9331 22.5106ZM46.7188 11.2798C46.5036 11.2804 46.2944 11.2091 46.1244 11.0772C44.1454 9.39442 41.6346 8.46643 39.0368 8.4576C36.4391 8.44877 33.922 9.35967 31.9315 11.0289C31.7426 11.2013 31.493 11.2916 31.2376 11.28C30.9821 11.2684 30.7417 11.1559 30.5692 10.9672C30.4842 10.8746 30.4183 10.7662 30.3754 10.648C30.3325 10.5299 30.3134 10.4045 30.3191 10.279C30.3248 10.1534 30.3554 10.0303 30.4089 9.91655C30.4624 9.80284 30.5379 9.70084 30.6309 9.61641C30.7023 9.54405 38.4674 2.67338 47.3131 9.56817C47.4127 9.64532 47.4961 9.74145 47.5583 9.85101C47.6205 9.96057 47.6604 10.0814 47.6757 10.2065C47.6909 10.3315 47.6812 10.4584 47.6472 10.5797C47.6131 10.701 47.5553 10.8143 47.4771 10.9132C47.3867 11.0276 47.2714 11.1201 47.1401 11.1836C47.0087 11.2471 46.8647 11.28 46.7188 11.2798ZM41.5491 16.7987C41.3509 16.9578 41.099 17.0345 40.8458 17.0129C40.5925 16.9913 40.3572 16.8732 40.1887 16.6829C39.8829 16.3363 39.4593 16.1155 39 16.0635C38.5411 16.117 38.1182 16.3388 37.8132 16.6858C37.6446 16.8766 37.409 16.9951 37.1553 17.0167C36.9015 17.0383 36.6493 16.9612 36.4509 16.8016C36.3543 16.7222 36.2744 16.6245 36.2158 16.514C36.1572 16.4036 36.121 16.2826 36.1093 16.1581C36.0976 16.0336 36.1107 15.9081 36.1478 15.7887C36.1849 15.6693 36.2453 15.5584 36.3255 15.4624C37.0087 14.6886 37.97 14.216 39 14.1473C40.0295 14.2157 40.9904 14.6872 41.6746 15.4595C41.7544 15.5555 41.8146 15.6663 41.8515 15.7856C41.8885 15.9049 41.9015 16.0304 41.8898 16.1547C41.8782 16.279 41.8421 16.3998 41.7836 16.5102C41.7251 16.6206 41.6455 16.7183 41.5491 16.7978V16.7987Z" fill="black"/>
<path d="M44.519 13.854C44.3421 14.0376 44.0997 14.1437 43.8447 14.1491C43.5898 14.1545 43.3431 14.0588 43.1586 13.8829C42.0069 12.8671 40.5351 12.2879 39.0001 12.2466C37.4645 12.289 35.9927 12.8695 34.8416 13.8868C34.657 14.0627 34.4103 14.1584 34.1554 14.153C33.9005 14.1476 33.6581 14.0414 33.4812 13.8578C33.3937 13.7679 33.3249 13.6616 33.2785 13.545C33.2322 13.4284 33.2092 13.3039 33.211 13.1785C33.2128 13.053 33.2393 12.9292 33.289 12.814C33.3386 12.6988 33.4105 12.5945 33.5005 12.5071C35.0002 11.1238 36.9599 10.3461 39.0001 10.3246C41.04 10.3456 42.9996 11.1225 44.4997 12.5051C44.6808 12.6816 44.7845 12.9227 44.7882 13.1756C44.7918 13.4284 44.695 13.6724 44.519 13.854Z" fill="black"/>
<path d="M39 19.8852C39.5329 19.8852 39.9648 19.4571 39.9648 18.9291C39.9648 18.401 39.5329 17.9729 39 17.9729C38.4671 17.9729 38.0352 18.401 38.0352 18.9291C38.0352 19.4571 38.4671 19.8852 39 19.8852Z" fill="black"/>
</g>
<defs>
<clipPath id="clip0_612_207">
<rect width="17.3672" height="17.3672" fill="white" transform="translate(30.3164 4.57031)"/>
</clipPath>
</defs>
</svg>
