<svg xmlns="http://www.w3.org/2000/svg" width="146.16" height="63" viewBox="0 0 146.16 63">
  <g id="Layer_2" data-name="Layer 2">
    <g id="Layer_1-2" data-name="Layer 1">
      <g>
        <path d="M26.88,0l28,17.88L38.53,26.57,26.88,19.12,21.7,22.43l-1.2-1.9,6.38-4.07L38.64,24,50.41,17.7l-23.53-15L2.24,18.41V44.6L26.88,60.33l27.39-17.5,1.2,1.9L26.88,63,0,45.83V17.17Z" fill="#fff" fill-rule="evenodd"/>
        <path d="M39.7,32.34v6L28,45.83V61.67H25.76V44.6l11.7-7.48V32.34Z" fill="#fff" fill-rule="evenodd"/>
        <path d="M14.05,26,.6,18.79l1-2,14.65,7.79V37.12l5.26,3.36-1.2,1.9-6.3-4Z" fill="#fff" fill-rule="evenodd"/>
        <path d="M79.93,20.42a9.47,9.47,0,0,1-.39,2.8,6,6,0,0,1-1.15,2.18,5.2,5.2,0,0,1-1.94,1.4,7,7,0,0,1-2.72.49A7.25,7.25,0,0,1,71,26.8,5,5,0,0,1,69,25.4a5.85,5.85,0,0,1-1.14-2.18,10,10,0,0,1-.38-2.82,8.86,8.86,0,0,1,.67-3.6,5.13,5.13,0,0,1,2.06-2.4,6.62,6.62,0,0,1,3.51-.85,6.44,6.44,0,0,1,3.43.86,5.2,5.2,0,0,1,2.06,2.39,9,9,0,0,1,.69,3.62Zm-10.14,0a7.62,7.62,0,0,0,.42,2.67,3.62,3.62,0,0,0,1.28,1.73,4.42,4.42,0,0,0,4.48,0,3.48,3.48,0,0,0,1.27-1.73,7.84,7.84,0,0,0,.41-2.67,6.31,6.31,0,0,0-.93-3.67,3.38,3.38,0,0,0-3-1.35,3.79,3.79,0,0,0-2.24.6,3.53,3.53,0,0,0-1.29,1.73,7.45,7.45,0,0,0-.44,2.69Z" fill="#fff"/>
        <path d="M88.66,27.11H86.49V13.76H94V15.6H88.66v4.17h5v1.84h-5Z" fill="#fff"/>
        <path d="M102.28,27.11h-2.16V13.76h7.5V15.6h-5.34v4.17h5v1.84h-5Z" fill="#fff"/>
        <path d="M113.75,27.11V13.76h2.18V27.11Z" fill="#fff"/>
        <path d="M128.8,15.43a4,4,0,0,0-1.71.35,3.42,3.42,0,0,0-1.26,1,4.48,4.48,0,0,0-.79,1.59,7.35,7.35,0,0,0-.28,2.08,7.51,7.51,0,0,0,.45,2.66,3.58,3.58,0,0,0,1.35,1.72,4,4,0,0,0,2.24.6,8.4,8.4,0,0,0,1.65-.17,15.45,15.45,0,0,0,1.65-.45v1.86a7.73,7.73,0,0,1-1.63.45,11.09,11.09,0,0,1-1.91.14,6.17,6.17,0,0,1-3.38-.84,5.2,5.2,0,0,1-2-2.37,9.08,9.08,0,0,1-.65-3.6,8.38,8.38,0,0,1,.41-2.77,6.34,6.34,0,0,1,1.22-2.18,5.33,5.33,0,0,1,2-1.41,6.88,6.88,0,0,1,2.69-.51,8.61,8.61,0,0,1,2,.23,9.27,9.27,0,0,1,1.79.63l-.76,1.8a12.27,12.27,0,0,0-1.46-.57,5.12,5.12,0,0,0-1.55-.24Z" fill="#fff"/>
        <path d="M146.16,27.11h-7.51V13.76h7.51V15.6h-5.34v3.63h5v1.83h-5v4.19h5.34Z" fill="#fff"/>
        <path d="M73.8,37.86a4,4,0,0,0-1.71.35,3.42,3.42,0,0,0-1.26,1A4.79,4.79,0,0,0,70,40.79a7.8,7.8,0,0,0-.28,2.09,7.51,7.51,0,0,0,.45,2.66,3.58,3.58,0,0,0,1.35,1.72,3.85,3.85,0,0,0,2.24.59,7.69,7.69,0,0,0,1.65-.16,15.45,15.45,0,0,0,1.65-.45V49.1a7.73,7.73,0,0,1-1.63.45,10.18,10.18,0,0,1-1.91.15,6.17,6.17,0,0,1-3.38-.85,5.06,5.06,0,0,1-2-2.39,9.27,9.27,0,0,1-.66-3.6A8.66,8.66,0,0,1,68,40.09a6,6,0,0,1,1.21-2.17,5.39,5.39,0,0,1,2-1.42A6.83,6.83,0,0,1,73.82,36a8.61,8.61,0,0,1,2,.23,9.61,9.61,0,0,1,1.8.63l-.77,1.81a12.12,12.12,0,0,0-1.45-.57,5.45,5.45,0,0,0-1.56-.23Z" fill="#fff"/>
        <path d="M94.06,36.19v8.63a5.23,5.23,0,0,1-.58,2.51,4.24,4.24,0,0,1-1.77,1.74,6.23,6.23,0,0,1-3,.65,5.22,5.22,0,0,1-3.88-1.35,4.86,4.86,0,0,1-1.34-3.6V36.19H85.7V44.6a3.39,3.39,0,0,0,.78,2.46,3.17,3.17,0,0,0,1.09.64,3.07,3.07,0,0,0,1.24.15,3.52,3.52,0,0,0,1.75-.37,2.32,2.32,0,0,0,1-1.12,4.28,4.28,0,0,0,.32-1.77v-8.4Z" fill="#fff"/>
        <path d="M101.17,36.19h4a8,8,0,0,1,3.88.75,2.71,2.71,0,0,1,1.31,2.59,3.24,3.24,0,0,1-.27,1.38,2.65,2.65,0,0,1-.77,1,2.77,2.77,0,0,1-1.26.53v.1a4.2,4.2,0,0,1,1.38.48,2.51,2.51,0,0,1,1,1,4.09,4.09,0,0,1-.22,3.74,3.42,3.42,0,0,1-1.67,1.33,6.58,6.58,0,0,1-2.52.45h-4.76Zm2.18,5.5h2.09a3.26,3.26,0,0,0,2-.48,1.6,1.6,0,0,0,.44-.64,1.81,1.81,0,0,0,.13-.77,1.48,1.48,0,0,0-.68-1.37,4.25,4.25,0,0,0-2.14-.41h-1.89Zm0,1.81v4.22h2.3a3,3,0,0,0,2.13-.59,2,2,0,0,0,.48-.74,2.46,2.46,0,0,0-.13-1.94,1.76,1.76,0,0,0-.9-.71,4.81,4.81,0,0,0-1.69-.24Z" fill="#fff"/>
        <path d="M124.67,49.53h-7.52V36.19h7.52V38h-5.34v3.61h5v1.83h-5v4.19h5.34Z" fill="#fff"/>
      </g>
    </g>
  </g>
</svg>
